# xmcd CD database file
#
# Track frame offsets:
#	183
#	17535
#	32898
#	49218
#	65123
#	82980
#	97928
#	115648
#	133215
#	150253
#	161743
#	174615
#
# Disc length: 2539 seconds
#
# Revision: 2
# Processed by: cddbd v1.5PL3 Copyright (c) Steve Scherf et al.
# Submitted via: CDex 1.50
#
DISCID=9309e90c
DTITLE=Felix Slovacek - For Lovers...
DYEAR=1993
DGENRE=Jazz
TTITLE0=The Air
TTITLE1=The White Beach
TTITLE2=The Empty Station
TTITLE3=Someone
TTITLE4=Only One Wish
TTITLE5=A Little Peace
TTITLE6=Hello
TTITLE7=Spirits
TTITLE8=Once Upon A Time In The West
TTITLE9=The Only One
TTITLE10=Bye Bye Love
TTITLE11=The Daybreake
EXTD=YEAR: 1993
EXTT0=
EXTT1=
EXTT2=
EXTT3=
EXTT4=
EXTT5=
EXTT6=
EXTT7=
EXTT8=
EXTT9=
EXTT10=
EXTT11=
PLAYORDER=
